<svg xmlns="http://www.w3.org/2000/svg" id="Layer_2" data-name="Layer 2" viewBox="0 0 91.76 69.4"><defs><style>      .cls-1 {        fill: #009198;      }      .cls-2 {        fill: #fba200;      }      .cls-3 {        fill: #dd1915;      }    </style></defs><g id="Layer_1-2" data-name="Layer 1"><rect class="cls-3" x="17.76" y="-2.74" width="7" height="41" transform="translate(39.01 -3.5) rotate(90)"></rect><path class="cls-1" d="m45.88,0l45.88,69.4H0S45.88,0,45.88,0Zm0,15.92l-29.55,44.7h59.11S45.88,15.92,45.88,15.92Z"></path><path class="cls-2" d="m28.74,33.71c0,5.58-4.54,10.12-10.12,10.12s-10.12-4.54-10.12-10.12c0-5.58,4.54-10.12,10.12-10.12s10.12,4.54,10.12,10.12m3.52,0c0-7.53-6.1-13.63-13.63-13.63s-13.63,6.1-13.63,13.63,6.1,13.63,13.63,13.63,13.63-6.1,13.63-13.63h0Z"></path></g></svg>